# xmcd
#
# Track frame offsets: 
#        150
#        13485
#        26072
#        38524
#        50056
#        61871
#        76616
#        91021
#        103459
#        116734
#        131419
#        146559
#        157745
#        171777
#        185970
#        199597
#        213982
#        229328
#        239955
#        252444
#        265953
#        279876
#        294996
#        308082
#        323495
#        337796
#
# Disc length: 4697 seconds
#
# Revision: 1
# Processed by: cddbd v1.5.2PL0 Copyright (c) Steve Scherf et al.
# Submitted via: ExactAudioCopyFreeDBPlugin 1.0
#
DISCID=7312571a
DTITLE=Various Artist - Really The Blues A Blues History - Vol 1 (189
DTITLE=3-1929) [Cd6]
DYEAR=2010
DGENRE=Blues
TTITLE0=Edward Clayborne 1927 - Death Is Only A Dream
TTITLE1=Henry Johnson 1927 - Neckbones And Beans
TTITLE2=Earl Mc Donald Jug Band 1927 - She's In The Graveyard Now
TTITLE3=Sam Collins 1927 - Yellow Dog Blues
TTITLE4=Ed Bell 1927 - Mamlish Blues
TTITLE5=Jessie Stone 1927 - Starvation Blues
TTITLE6=Armstrong Dodds 1927 - Wild Man Blues
TTITLE7=Guss Cannon 1927 - Can You Blame The Colored Man
TTITLE8=Long Cleve Red 1927 - Mama You Don't Know How Long
TTITLE9=Stovepipe #1 Same Jones 1927 - A Woman Gets Tired Of The Same 
TTITLE9=Man All The Time
TTITLE10=Margaret Johnson 1927 - Second Hand Blues
TTITLE11=Buddy Boy Hawkins 1927 - Awful Fix
TTITLE12=Grayson And Whitter 1927 - Train 45
TTITLE13=Bernard, Quealey 1927 - Hesitation Blues
TTITLE14=Texas Alexander W Lonnie Johnson 1927 - Section Gang Blues
TTITLE15=Lonnie Johnson 1927 - Lonesome Ghost Blues
TTITLE16=Violet Harmony Singers 1927 - Lord I Can't Stay Away
TTITLE17=Paul Robeson 1927 - Deep River
TTITLE18=Barbour's Plantation Singers 1927 - Doan Lit Satan Git You
TTITLE19=Mae Frierson 1927 - Every Time I Feel The Spirit
TTITLE20=Jaybird Coleman 1927 - Man Trouble
TTITLE21=Tommy Johnson 1928 - Big Road Blues
TTITLE22=Forbes Kentucky Jubilee Choir 1928 - Deep River
TTITLE23=Prince Albert Hunt 1928 - Blues In The Bottle
TTITLE24=Memphis Jug Band 1928 - Stealin
TTITLE25=Jim Jackson 1928 - I'm Wild About My Lovin'
EXTD=
EXTT0=
EXTT1=
EXTT2=
EXTT3=
EXTT4=
EXTT5=
EXTT6=
EXTT7=
EXTT8=
EXTT9=
EXTT10=
EXTT11=
EXTT12=
EXTT13=
EXTT14=
EXTT15=
EXTT16=
EXTT17=
EXTT18=
EXTT19=
EXTT20=
EXTT21=
EXTT22=
EXTT23=
EXTT24=
EXTT25=
PLAYORDER=
